# xmcd CD database file
#
# Track frame offsets:
#	150
#	11209
#	24929
#	39159
#	53003
#	64814
#	76293
#	88170
#	101701
#	115351
#	124006
#	135398
#	151409
#	161515
#	169298
#	177819
#	185823
#	197885
#	203273
#	211618
#	223213
#	235769
#	245331
#
# Disc length: 3420 seconds
#
# Revision: 0
# Processed by: cddbd v1.4PL0 Copyright (c) Steve Scherf et al.
# Submitted via: CDex 1.50Beta7
#
DISCID=350d5a17
DTITLE=Dean Martin - Everybody Loves Somebody
DYEAR=2001
DGENRE=Jazz
TTITLE0=Everybody Loves Somebody
TTITLE1=That Certain Party (Of Mine)
TTITLE2=The Money Song
TTITLE3=Bye Bye Blackbird
TTITLE4=Hold Me
TTITLE5=Powder Your Face With Sunshine (Smile! Smile! Smile!)
TTITLE6=Three Wishes
TTITLE7=My Own, My Only, My All
TTITLE8=That Lucky Old Sun
TTITLE9=I Don't Care If The Sun Don't Shine
TTITLE10=''A'' Your Adorable (The Alphabet Song)
TTITLE11=Some Enchanted Evening
TTITLE12=Ghost Riders In The Sky
TTITLE13=Candy Kisses
TTITLE14=Sunflower
TTITLE15=On A Slow Boat To China
TTITLE16=Heart And Soul
TTITLE17=Baby, It's Cold Outside
TTITLE18=Ramblin' Rose
TTITLE19=I'll Always Love You
TTITLE20=If
TTITLE21=You And Your Beautiful Eyes
TTITLE22=Takes Two To Tango
EXTD=YEAR: 2001
EXTT0=
EXTT1=
EXTT2=
EXTT3=
EXTT4=
EXTT5=
EXTT6=
EXTT7=
EXTT8=
EXTT9=
EXTT10=
EXTT11=
EXTT12=
EXTT13=
EXTT14=
EXTT15=
EXTT16=
EXTT17=
EXTT18=
EXTT19=
EXTT20=
EXTT21=
EXTT22=
PLAYORDER=
